<?xml version="1.0" standalone="no"?>
<!DOCTYPE svg PUBLIC "-//W3C//DTD SVG 20010904//EN"
 "http://www.w3.org/TR/2001/REC-SVG-20010904/DTD/svg10.dtd">
<svg version="1.0" xmlns="http://www.w3.org/2000/svg"
 width="24.000000pt" height="24.000000pt" viewBox="0 0 24.000000 24.000000"
 preserveAspectRatio="xMidYMid meet">

<g transform="translate(0.000000,24.000000) scale(0.100000,-0.100000)"
fill="#000000" stroke="none">
<path d="M40 170 c0 -6 33 -10 80 -10 47 0 80 4 80 10 0 6 -33 10 -80 10 -47
0 -80 -4 -80 -10z"/>
<path d="M80 120 c0 -6 27 -10 60 -10 33 0 60 4 60 10 0 6 -27 10 -60 10 -33
0 -60 -4 -60 -10z"/>
<path d="M130 70 c0 -5 16 -10 35 -10 19 0 35 5 35 10 0 6 -16 10 -35 10 -19
0 -35 -4 -35 -10z"/>
</g>
</svg>
